:SAMPLES-PER-SECOND 30
:FULLY-SPECIFIED
:DEGREES
224
root  25.5805 38.4375 2.9651 66.8664 86.4249 75.6318
RightUpLeg  -6.15758 -0.930393 -8.33011
RightLeg  63.6386 1.843 3.49237
RightFoot  1.81646 -0.985558 8.63483
RightToes  5.47152e-009 0 -3.6325e-017
Spine  3.87725 2.02829 -1.04798
Spine1  13.6452 2.08834 -3.62878
HEad  -3.09668 2.38074 -3.05906
LeftShoulder1  -0.259602 4.29174 -26.7376
LeftArm  -13.6226 11.6167 -36.9442
LeftForeArm  76.5106 -78.8815 -97.4956
LeftHand  -0.00719808 4.69681 -3.59579
RightShoulder  -0.576185 -5.16872 27.846
RightArm  -12.9197 -10.9964 38.8565
RightForeArm  100.286 74.6765 132.131
RightHand  -0.0329606 -5.01891 -2.49082
LeftUpLeg  -5.64815 4.4792 -6.1048
LeftLeg  21.6644 3.55383 1.81467
LeftFoot  -5.89208 -0.285941 6.71161
LeftToes  -4.29285e-010 1.49941e-010 2.15559e-012
225
root  26.6315 38.6184 2.88182 71.0916 87.7333 81.1274
RightUpLeg  -8.60778 -1.02864 -6.68192
RightLeg  61.3839 1.71266 2.90475
RightFoot  0.686845 -0.840527 8.00873
RightToes  5.47152e-009 0 -3.6325e-017
Spine  6.14755 1.38415 -0.540466
Spine1  12.4545 1.18273 -3.21152
HEad  -2.97311 1.94758 -2.48249
LeftShoulder1  -0.258296 4.28589 -26.8174
LeftArm  -13.8678 11.0578 -37.3155
LeftForeArm  76.6206 -78.8948 -97.3612
LeftHand  -0.0311578 5.33097 -3.8755
RightShoulder  -0.614373 -5.26114 28.2287
RightArm  -13.4276 -11.7254 38.6225
RightForeArm  102.188 74.2492 133.916
RightHand  -0.0387433 -4.60504 -2.22717
LeftUpLeg  -1.89437 5.4686 -4.51585
LeftLeg  20.6542 2.05125 1.11643
LeftFoot  -7.64314 -0.158703 6.36964
LeftToes  -4.29285e-010 1.49941e-010 2.15559e-012
226
root  27.6897 38.7546 2.84767 72.5414 88.8544 83.7199
RightUpLeg  -10.1958 -0.623663 -4.95488
RightLeg  55.8546 1.65903 2.22351
RightFoot  -0.48065 -0.72401 7.57314
RightToes  5.47152e-009 0 -3.6325e-017
Spine  7.6786 0.981618 -0.806558
Spine1  12.0629 0.35146 -1.78937
HEad  -3.26043 2.33423 -2.61405
LeftShoulder1  -0.2649 4.30373 -26.9114
LeftArm  -14.0479 10.5695 -37.5401
LeftForeArm  77.247 -78.9215 -97.3561
LeftHand  -0.0244158 5.15569 -4.56696
RightShoulder  -0.602127 -5.23048 28.1279
RightArm  -13.8362 -12.153 38.4124
RightForeArm  103.853 73.7855 135.651
RightHand  -0.0340137 -4.85928 -1.93675
LeftUpLeg  1.8009 7.14079 -2.63695
LeftLeg  19.5586 0.0769424 0.198502
LeftFoot  -9.0792 -0.0798179 6.80515
LeftToes  -4.29285e-010 1.49941e-010 2.15559e-012
227
root  28.7596 38.823 2.79515 88.3639 89.5683 100.094
RightUpLeg  -11.3308 0.0150964 -3.68096
RightLeg  47.4216 1.67601 1.63027
RightFoot  -1.30502 -0.665651 7.46883
RightToes  5.47152e-009 0 -3.6325e-017
Spine  8.71357 0.663665 -0.89623
Spine1  11.3196 -0.192541 -0.878349
HEad  -3.46707 1.99259 -2.47723
LeftShoulder1  -0.283346 4.35332 -27.1469
LeftArm  -13.8707 10.1557 -37.4734
LeftForeArm  78.5824 -78.9159 -98.2723
LeftHand  -0.0213236 5.03321 -4.58549
RightShoulder  -0.587042 -5.1938 27.9815
RightArm  -14.1158 -13.0869 38.3019
RightForeArm  104.501 73.2428 137.331
RightHand  -0.0396547 -4.64434 -2.58811
LeftUpLeg  4.78183 8.40286 -1.07702
LeftLeg  18.744 -1.49294 -0.539889
LeftFoot  -10.6439 0.0211173 7.0255
LeftToes  -4.29285e-010 1.49941e-010 2.15559e-012
228
root  29.8568 38.8214 2.71783 148.226 89.7174 160.447
RightUpLeg  -11.1288 0.325326 -3.11266
RightLeg  36.3602 1.57442 1.01262
RightFoot  -1.5133 -0.692533 7.92502
RightToes  5.47152e-009 0 -3.6325e-017
Spine  9.29134 0.340594 -0.926793
Spine1  11.1072 -0.578486 -0.363226
HEad  -3.90213 1.53505 -2.47301
LeftShoulder1  -0.338224 4.51257 -27.3426
LeftArm  -13.555 9.31276 -37.4827
LeftForeArm  77.4383 -78.9453 -97.1199
LeftHand  -0.0198615 5.12599 -4.61761
RightShoulder  -0.585039 -5.19794 27.7789
RightArm  -14.6917 -13.9038 38.2313
RightForeArm  106.065 72.7352 138.937
RightHand  -0.0401854 -4.64719 -2.52735
LeftUpLeg  7.62545 9.27445 -0.0701823
LeftLeg  18.1556 -2.8258 -1.20524
LeftFoot  -12.2358 0.129081 7.06287
LeftToes  -4.29285e-010 1.49941e-010 2.15559e-012
229
root  30.9768 38.7539 2.70575 101.43 89.4627 113.414
RightUpLeg  -10.7921 1.33987 -3.19568
RightLeg  23.6809 0.981897 0.350931
RightFoot  -1.54734 -0.777814 8.94288
RightToes  5.47152e-009 0 -3.6325e-017
Spine  8.63537 0.392093 -1.84851
Spine1  11.5057 -0.641219 0.448929
HEad  -4.25188 1.68857 -3.00936
LeftShoulder1  -0.279215 4.33425 -27.412
LeftArm  -13.3397 8.83559 -37.7793
LeftForeArm  76.3546 -78.9836 -95.8026
LeftHand  -0.0171491 5.18146 -4.70383
RightShoulder  -0.590323 -5.21296 27.7875
RightArm  -15.2325 -14.2291 38.3137
RightForeArm  107.256 72.3674 140.03
RightHand  -0.0274871 -5.03103 -2.81832
LeftUpLeg  9.8234 9.80139 0.172512
LeftLeg  17.2951 -3.26424 -1.73599
LeftFoot  -13.7987 0.22841 6.83081
LeftToes  -4.29285e-010 1.49941e-010 2.15559e-012
230
root  32.1228 38.6775 2.77332 85.1453 88.7038 96.7379
RightUpLeg  -10.005 1.26483 -3.25262
RightLeg  10.5949 2.0867 -0.357896
RightFoot  -1.29728 -0.71027 7.95694
RightToes  5.47152e-009 0 -3.6325e-017
Spine  8.26794 0.571425 -3.35228
Spine1  11.0056 -0.62482 1.64328
HEad  -3.73959 1.14737 -2.94505
LeftShoulder1  -0.261505 4.29406 -26.8822
LeftArm  -12.932 8.85179 -37.8583
LeftForeArm  74.3899 -78.9743 -94.5302
LeftHand  -0.024613 5.28658 -4.09029
RightShoulder  -0.602946 -5.23765 28.0333
RightArm  -15.0846 -15.0761 37.9866
RightForeArm  108.425 71.8263 141.484
RightHand  0.022426 -7.32325 -3.54381
LeftUpLeg  12.2759 10.1445 0.230959
LeftLeg  15.6763 -3.60917 -2.45203
LeftFoot  -15.1203 0.301817 6.33742
LeftToes  -4.29285e-010 1.49941e-010 2.15559e-012
231
root  33.2869 38.4665 2.90776 71.947 87.4895 82.4806
RightUpLeg  -10.393 -2.54032 -2.4567
RightLeg  -0.0768078 7.35229 -2.21961
RightFoot  -2.04933 -0.714233 8.66012
RightToes  5.47152e-009 0 -3.6325e-017
Spine  7.0546 1.13301 -5.44216
Spine1  10.7431 -0.316545 3.02751
HEad  -4.25904 1.47822 -2.83444
LeftShoulder1  -0.325132 4.4773 -27.1982
LeftArm  -12.3367 7.70039 -37.3622
LeftForeArm  70.7989 -78.9906 -91.3168
LeftHand  -0.0304187 5.30858 -3.91698
RightShoulder  -0.575986 -5.16869 27.8319
RightArm  -15.1769 -15.6058 37.9812
RightForeArm  108.995 71.6448 141.969
RightHand  -0.0152017 -5.94514 -3.19031
LeftUpLeg  13.5766 10.5776 -0.13234
LeftLeg  15.1582 -3.90878 -3.41242
LeftFoot  -16.5447 0.411408 6.8678
LeftToes  -4.29285e-010 1.49941e-010 2.15559e-012
232
root  34.5626 38.156 2.99283 79.1616 86.8124 89.799
RightUpLeg  -10.5004 -2.97822 -2.42081
RightLeg  -4.50501 7.35868 -2.79743
RightFoot  -3.67373 -0.743566 10.5667
RightToes  5.47152e-009 0 -3.6325e-017
Spine  6.76882 1.35207 -6.59426
Spine1  10.7128 -0.315711 3.91675
HEad  -4.64095 1.48432 -3.22083
LeftShoulder1  -0.327219 4.4776 -27.3996
LeftArm  -11.9343 6.7647 -37.213
LeftForeArm  68.3373 -78.9814 -89.0362
LeftHand  -0.0436978 5.64319 -4.10742
RightShoulder  -0.569369 -5.15677 27.6744
RightArm  -15.2954 -15.7956 37.7976
RightForeArm  109.025 71.5327 142.223
RightHand  -0.027608 -5.32658 -3.43805
LeftUpLeg  15.8878 11.1512 0.16575
LeftLeg  15.5465 -5.02991 -3.95964
LeftFoot  -18.7829 0.547284 6.67031
LeftToes  -4.29285e-010 1.49941e-010 2.15559e-012
233
root  35.907 37.8652 2.899 95.1967 87.0802 106.351
RightUpLeg  -10.3853 -3.22689 -2.20745
RightLeg  -2.92278 4.10098 -1.95777
RightFoot  -3.08657 -0.635107 8.82143
RightToes  5.47152e-009 0 -3.6325e-017
Spine  6.76006 0.832456 -4.17414
Spine1  11.2971 -0.346595 2.30303
HEad  -5.04007 1.5828 -3.57997
LeftShoulder1  -0.27607 4.33456 -27.0325
LeftArm  -11.5267 5.76169 -37.4357
LeftForeArm  63.8013 -78.9356 -84.4529
LeftHand  -0.0291522 5.23762 -4.8333
RightShoulder  -0.619781 -5.30015 27.782
RightArm  -15.3511 -15.259 37.3802
RightForeArm  108.271 71.7418 141.653
RightHand  -0.0267059 -5.35168 -2.46811
LeftUpLeg  18.5654 11.1419 0.730942
LeftLeg  16.021 -6.00663 -3.33681
LeftFoot  -21.0146 0.650916 6.19528
LeftToes  -4.29285e-010 1.49941e-010 2.15559e-012
234
root  37.2145 37.6862 2.73018 123.293 87.4802 134.593
RightUpLeg  -11.3779 -3.75734 -1.58939
RightLeg  2.47293 1.44631 -0.707146
RightFoot  2.81665 -0.408392 3.48756
RightToes  5.47152e-009 0 -3.6325e-017
Spine  6.6567 -0.0160936 -0.730224
Spine1  11.807 -0.763481 1.37157
HEad  -5.00681 1.64281 -4.20408
LeftShoulder1  -0.259629 4.2817 -27.1613
LeftArm  -10.9425 4.92399 -37.5313
LeftForeArm  60.0283 -78.8375 -81.0062
LeftHand  -0.038693 5.33545 -4.16677
RightShoulder  -0.601109 -5.27202 27.2442
RightArm  -15.0648 -14.3743 37.1345
RightForeArm  106.099 72.1765 140.338
RightHand  -0.0194262 -5.57845 -3.35245
LeftUpLeg  20.8019 9.71427 0.917021
LeftLeg  15.8043 -5.46076 -1.76244
LeftFoot  -22.613 0.619668 4.90776
LeftToes  -4.29285e-010 1.49941e-010 2.15559e-012
235
root  38.5485 37.5266 2.68953 164.779 87.1472 176.184
RightUpLeg  -12.6585 -3.9363 -0.693231
RightLeg  7.90338 0.555827 -0.0608787
RightFoot  8.97483 -0.15898 1.15067
RightToes  5.47152e-009 0 -3.6325e-017
Spine  6.36468 -0.661163 1.95515
Spine1  12.1316 -1.30235 1.56285
HEad  -4.77916 1.47782 -4.65339
LeftShoulder1  -0.285739 4.3457 -27.7709
LeftArm  -10.0581 3.65387 -37.106
LeftForeArm  54.643 -78.6205 -75.9918
LeftHand  -0.0431729 5.54546 -4.15403
RightShoulder  -0.535437 -5.1103 26.5482
RightArm  -15.2817 -13.4584 37.1869
RightForeArm  104.639 72.6831 138.869
RightHand  -0.0508062 -4.11099 -2.68471
LeftUpLeg  22.2995 7.03199 1.42344
LeftLeg  16.9536 -3.93238 -0.704148
LeftFoot  -23.7673 0.434399 2.68647
LeftToes  -4.29285e-010 1.49941e-010 2.15559e-012
236
root  39.9383 37.2943 2.80102 -168.567 86.8918 -156.708
RightUpLeg  -13.9944 -2.97032 1.04382
RightLeg  15.2438 0.388808 -0.0838549
RightFoot  8.07458 0.0683736 -0.0902678
RightToes  5.47152e-009 0 -3.6325e-017
Spine  6.93368 -0.588247 4.50465
Spine1  11.6356 -0.99479 1.482
HEad  -4.40197 1.37736 -5.4131
LeftShoulder1  -0.237699 4.20196 -27.8561
LeftArm  -9.33703 2.23315 -37.5774
LeftForeArm  46.9287 -78.1413 -68.5945
LeftHand  -0.0471456 5.69185 -4.0634
RightShoulder  -0.565738 -5.20244 26.5425
RightArm  -15.2343 -12.2503 36.7692
RightForeArm  102.621 73.2086 137.147
RightHand  -0.045989 -4.52633 -3.18537
LeftUpLeg  22.9379 5.30679 3.25902
LeftLeg  21.3356 -3.72056 -1.26629
LeftFoot  -24.1909 0.157258 0.1309
LeftToes  -4.29285e-010 1.49941e-010 2.15559e-012
237
root  41.2786 37.2183 2.81239 -150.246 85.3634 -137.843
RightUpLeg  -13.7314 -3.52493 2.82559
RightLeg  20.008 0.195556 -0.152229
RightFoot  6.12814 0.368904 -2.1244
RightToes  5.47152e-009 0 -3.6325e-017
Spine  6.91761 -1.32067 7.71156
Spine1  12.1258 -1.2508 1.20894
HEad  -3.64566 1.58118 -5.18091
LeftShoulder1  -0.206877 4.12007 -27.3903
LeftArm  -9.0241 1.30356 -38.3548
LeftForeArm  40.1366 -77.4789 -61.7104
LeftHand  -0.0535927 5.89448 -3.8062
RightShoulder  -0.578592 -5.23951 26.5816
RightArm  -14.6757 -10.0421 36.6175
RightForeArm  97.5913 74.4116 132.557
RightHand  -0.0465941 -4.62376 -3.63017
LeftUpLeg  21.9202 3.65221 5.39092
LeftLeg  28.2502 -4.26938 -2.22929
LeftFoot  -22.4196 -0.260455 -4.25255
LeftToes  -4.29285e-010 1.49941e-010 2.15559e-012
238
root  42.3661 37.115 2.99069 -150.439 84.0592 -139.048
RightUpLeg  -15.0191 -3.32276 3.90119
RightLeg  23.9661 -1.23944 -0.821213
RightFoot  3.06228 0.390776 -2.92447
RightToes  5.47152e-009 0 -3.6325e-017
Spine  6.67541 -1.59178 8.27512
Spine1  11.8065 -1.46045 2.89067
HEad  -3.55238 1.12301 -5.08637
LeftShoulder1  -0.151334 3.95413 -27.4782
LeftArm  -8.56366 -1.04177 -38.5897
LeftForeArm  31.5405 -76.2853 -53.3945
LeftHand  -0.0562941 5.8792 -3.45667
RightShoulder  -0.539646 -5.15992 25.8009
RightArm  -14.3226 -7.207 37.1847
RightForeArm  89.6273 76.0824 124.239
RightHand  -0.0375824 -4.90564 -3.2126
LeftUpLeg  16.2558 3.36568 7.67373
LeftLeg  39.0624 -5.98553 -4.76966
LeftFoot  -16.3481 -0.315648 -9.83276
LeftToes  -4.29285e-010 1.49941e-010 2.15559e-012
